<svg xmlns="http://www.w3.org/2000/svg" viewBox="0 0 640 400" preserveAspectRatio="xMidYMid slice"><defs>
<radialGradient id="bg" cx="50%" cy="46%" r="72%"><stop offset="0" stop-color="#fff"/><stop offset="1" stop-color="#EFFDF5"/></radialGradient>
<linearGradient id="roof" x1="0" y1="0" x2="0" y2="1"><stop offset="0" stop-color="#625FFF"/><stop offset="1" stop-color="#4F46E5"/></linearGradient>
<linearGradient id="wall" x1="0" y1="0" x2="1" y2="0"><stop offset="0" stop-color="#fff"/><stop offset="1" stop-color="#E9ECFF"/></linearGradient>
<linearGradient id="gold" x1="0" y1="0" x2="0" y2="1"><stop offset="0" stop-color="#FDE68A"/><stop offset="1" stop-color="#F59E0B"/></linearGradient>
<linearGradient id="goldH" x1="0" y1="0" x2="1" y2="1"><stop offset="0" stop-color="#FDE68A"/><stop offset=".55" stop-color="#FBBF24"/><stop offset="1" stop-color="#F59E0B"/></linearGradient>
<linearGradient id="ind" x1="0" y1="0" x2="1" y2="1"><stop offset="0" stop-color="#7C79FF"/><stop offset="1" stop-color="#4F46E5"/></linearGradient>
<linearGradient id="leaf" x1="0" y1="0" x2="0" y2="1"><stop offset="0" stop-color="#4ADE80"/><stop offset="1" stop-color="#22C55E"/></linearGradient>
<filter id="sh" x="-30%" y="-30%" width="160%" height="170%"><feDropShadow dx="0" dy="10" stdDeviation="9" flood-color="#312E81" flood-opacity=".16"/></filter>
<filter id="sh2" x="-30%" y="-30%" width="160%" height="170%"><feDropShadow dx="0" dy="4" stdDeviation="4" flood-color="#312E81" flood-opacity=".18"/></filter>
</defs><rect width="640" height="400" fill="url(#bg)"/>
<circle cx="320" cy="190" r="150" fill="#fff" opacity=".55"/><ellipse cx="300" cy="346" rx="230" ry="16" fill="#312E81" opacity="0.12"/><g filter="url(#sh)"><rect x="150" y="180" width="270" height="152" rx="6" fill="url(#wall)" stroke="#312E81" stroke-width="4"/></g><path d="M150.0 150h45.0v34a22.5 15.749999999999998 0 0 1 -45.0 0z" fill="#625FFF" stroke="#312E81" stroke-width="3.5" stroke-linejoin="round"/><path d="M195.0 150h45.0v34a22.5 15.749999999999998 0 0 1 -45.0 0z" fill="#fff" stroke="#312E81" stroke-width="3.5" stroke-linejoin="round"/><path d="M240.0 150h45.0v34a22.5 15.749999999999998 0 0 1 -45.0 0z" fill="#625FFF" stroke="#312E81" stroke-width="3.5" stroke-linejoin="round"/><path d="M285.0 150h45.0v34a22.5 15.749999999999998 0 0 1 -45.0 0z" fill="#fff" stroke="#312E81" stroke-width="3.5" stroke-linejoin="round"/><path d="M330.0 150h45.0v34a22.5 15.749999999999998 0 0 1 -45.0 0z" fill="#625FFF" stroke="#312E81" stroke-width="3.5" stroke-linejoin="round"/><path d="M375.0 150h45.0v34a22.5 15.749999999999998 0 0 1 -45.0 0z" fill="#fff" stroke="#312E81" stroke-width="3.5" stroke-linejoin="round"/><rect x="146" y="140" width="278" height="16" rx="5" fill="#312E81"/><rect x="178" y="214" width="88" height="70" rx="6" fill="#E0E7FF" stroke="#312E81" stroke-width="3.5"/><path d="M186 276l24-40M214 276l30-48" stroke="#fff" stroke-width="5" opacity=".8" stroke-linecap="round"/><rect x="196" y="262" width="22" height="22" rx="3" fill="#FBBF24" stroke="#B45309" stroke-width="2.5"/><rect x="226" y="250" width="26" height="34" rx="3" fill="#4ADE80" stroke="#15803D" stroke-width="2.5"/><rect x="298" y="214" width="92" height="118" rx="6" fill="url(#ind)" stroke="#312E81" stroke-width="3.5"/><rect x="308" y="224" width="72" height="62" rx="4" fill="#E0E7FF" opacity=".85"/><circle cx="378" cy="296" r="4" fill="#FBBF24"/><rect x="318" y="158" width="52" height="22" rx="6" fill="#fff" stroke="#312E81" stroke-width="3"/><path d="M328 169h32" stroke="#625FFF" stroke-width="4" stroke-linecap="round"/><g filter="url(#sh)"><rect x="400" y="150" width="170" height="150" rx="16" fill="#fff" stroke="#312E81" stroke-width="3.5"/></g><rect x="418" y="238" width="18" height="40" rx="5" fill="#A5B4FC"/><rect x="446" y="216" width="18" height="62" rx="5" fill="#A5B4FC"/><rect x="474" y="226" width="18" height="52" rx="5" fill="#A5B4FC"/><rect x="502" y="194" width="18" height="84" rx="5" fill="#A5B4FC"/><rect x="530" y="170" width="18" height="108" rx="5" fill="#625FFF"/><path d="M420 230l36 -16 30 10 40 -36 28 -8" fill="none" stroke="#22C55E" stroke-width="5" stroke-linecap="round" stroke-linejoin="round"/><path d="M538 172l16 6 -4 16" fill="none" stroke="#22C55E" stroke-width="5" stroke-linecap="round" stroke-linejoin="round"/><circle cx="430" cy="126" r="26" fill="url(#goldH)" stroke="#B45309" stroke-width="2.0"/><circle cx="430" cy="126" r="19.2" fill="none" stroke="#FDE68A" stroke-width="1.6"/><g transform="translate(430 126) scale(1.612)" fill="none" stroke="#B45309" stroke-width="2.6" stroke-linecap="round" stroke-linejoin="round"><path d="M-5.5-6.5h11M-5.5-1.8h11"/><path d="M-4.5-6.5h3.4c3.6 0 5.2 1.6 5.2 4.2s-1.8 4.2-5.4 4.2h-3.2"/><path d="M-3.8 2.1L3.6 9.5"/></g><path d="M415.7 114.3a18.2 18.2 0 0 1 13.0 -7.8" stroke="#fff" stroke-width="2.2" stroke-linecap="round" fill="none" opacity=".7"/><g transform="translate(120 336) scale(0.9)"><circle cx="-16" cy="0" r="14" fill="#22C55E"/><circle cx="0" cy="-6" r="17" fill="#4ADE80"/><circle cx="17" cy="0" r="13" fill="#22C55E"/></g><g transform="translate(560 338) scale(0.8)"><circle cx="-16" cy="0" r="14" fill="#22C55E"/><circle cx="0" cy="-6" r="17" fill="#4ADE80"/><circle cx="17" cy="0" r="13" fill="#22C55E"/></g><path d="M110 136.8L113.52 146.48 123.2 150 113.52 153.52 110 163.2 106.48 153.52 96.8 150 106.48 146.48Z" fill="#FDE68A" opacity="1"/><circle cx="580" cy="110" r="8" fill="#22C55E" opacity="0.35"/><circle cx="100" cy="290" r="6" fill="#22C55E" opacity="0.3"/></svg>