<svg xmlns="http://www.w3.org/2000/svg" viewBox="0 0 640 400" preserveAspectRatio="xMidYMid slice"><defs>
<radialGradient id="bg" cx="50%" cy="46%" r="72%"><stop offset="0" stop-color="#fff"/><stop offset="1" stop-color="#EFFDF5"/></radialGradient>
<linearGradient id="roof" x1="0" y1="0" x2="0" y2="1"><stop offset="0" stop-color="#625FFF"/><stop offset="1" stop-color="#4F46E5"/></linearGradient>
<linearGradient id="wall" x1="0" y1="0" x2="1" y2="0"><stop offset="0" stop-color="#fff"/><stop offset="1" stop-color="#E9ECFF"/></linearGradient>
<linearGradient id="gold" x1="0" y1="0" x2="0" y2="1"><stop offset="0" stop-color="#FDE68A"/><stop offset="1" stop-color="#F59E0B"/></linearGradient>
<linearGradient id="goldH" x1="0" y1="0" x2="1" y2="1"><stop offset="0" stop-color="#FDE68A"/><stop offset=".55" stop-color="#FBBF24"/><stop offset="1" stop-color="#F59E0B"/></linearGradient>
<linearGradient id="ind" x1="0" y1="0" x2="1" y2="1"><stop offset="0" stop-color="#7C79FF"/><stop offset="1" stop-color="#4F46E5"/></linearGradient>
<linearGradient id="leaf" x1="0" y1="0" x2="0" y2="1"><stop offset="0" stop-color="#4ADE80"/><stop offset="1" stop-color="#22C55E"/></linearGradient>
<filter id="sh" x="-30%" y="-30%" width="160%" height="170%"><feDropShadow dx="0" dy="10" stdDeviation="9" flood-color="#312E81" flood-opacity=".16"/></filter>
<filter id="sh2" x="-30%" y="-30%" width="160%" height="170%"><feDropShadow dx="0" dy="4" stdDeviation="4" flood-color="#312E81" flood-opacity=".18"/></filter>
</defs><rect width="640" height="400" fill="url(#bg)"/>
<circle cx="320" cy="190" r="150" fill="#fff" opacity=".55"/><ellipse cx="320" cy="346" rx="240" ry="16" fill="#312E81" opacity="0.12"/><g filter="url(#sh)"><rect x="150" y="318" width="340" height="16" rx="4" fill="#E0E7FF" stroke="#312E81" stroke-width="3.5"/><rect x="164" y="304" width="312" height="16" rx="4" fill="#fff" stroke="#312E81" stroke-width="3.5"/><rect x="170" y="164" width="300" height="20" rx="3" fill="#fff" stroke="#312E81" stroke-width="3.5"/><polygon points="146,166 320,76 494,166" fill="url(#roof)" stroke="#312E81" stroke-width="4" stroke-linejoin="round"/></g><circle cx="320" cy="132" r="19" fill="#E0E7FF" stroke="#312E81" stroke-width="3.5"/><path d="M320 118v28M306 132h28M310 122l20 20M330 122l-20 20" stroke="#625FFF" stroke-width="2.4"/><rect x="184" y="184" width="30" height="122" fill="url(#wall)" stroke="#312E81" stroke-width="3.5"/><rect x="179" y="180" width="40" height="10" rx="2" fill="#fff" stroke="#312E81" stroke-width="3"/><rect x="179" y="298" width="40" height="10" rx="2" fill="#fff" stroke="#312E81" stroke-width="3"/><path d="M193 196v96M205 196v96" stroke="#E0E7FF" stroke-width="3"/><rect x="236" y="184" width="30" height="122" fill="url(#wall)" stroke="#312E81" stroke-width="3.5"/><rect x="231" y="180" width="40" height="10" rx="2" fill="#fff" stroke="#312E81" stroke-width="3"/><rect x="231" y="298" width="40" height="10" rx="2" fill="#fff" stroke="#312E81" stroke-width="3"/><path d="M245 196v96M257 196v96" stroke="#E0E7FF" stroke-width="3"/><rect x="288" y="184" width="30" height="122" fill="url(#wall)" stroke="#312E81" stroke-width="3.5"/><rect x="283" y="180" width="40" height="10" rx="2" fill="#fff" stroke="#312E81" stroke-width="3"/><rect x="283" y="298" width="40" height="10" rx="2" fill="#fff" stroke="#312E81" stroke-width="3"/><path d="M297 196v96M309 196v96" stroke="#E0E7FF" stroke-width="3"/><rect x="340" y="184" width="30" height="122" fill="url(#wall)" stroke="#312E81" stroke-width="3.5"/><rect x="335" y="180" width="40" height="10" rx="2" fill="#fff" stroke="#312E81" stroke-width="3"/><rect x="335" y="298" width="40" height="10" rx="2" fill="#fff" stroke="#312E81" stroke-width="3"/><path d="M349 196v96M361 196v96" stroke="#E0E7FF" stroke-width="3"/><rect x="392" y="184" width="30" height="122" fill="url(#wall)" stroke="#312E81" stroke-width="3.5"/><rect x="387" y="180" width="40" height="10" rx="2" fill="#fff" stroke="#312E81" stroke-width="3"/><rect x="387" y="298" width="40" height="10" rx="2" fill="#fff" stroke="#312E81" stroke-width="3"/><path d="M401 196v96M413 196v96" stroke="#E0E7FF" stroke-width="3"/><rect x="444" y="184" width="30" height="122" fill="url(#wall)" stroke="#312E81" stroke-width="3.5"/><rect x="439" y="180" width="40" height="10" rx="2" fill="#fff" stroke="#312E81" stroke-width="3"/><rect x="439" y="298" width="40" height="10" rx="2" fill="#fff" stroke="#312E81" stroke-width="3"/><path d="M453 196v96M465 196v96" stroke="#E0E7FF" stroke-width="3"/><rect x="318" y="30" width="4" height="50" fill="#312E81"/><path d="M322 32l56 10-56 14z" fill="#FBBF24" stroke="#B45309" stroke-width="2.5" stroke-linejoin="round"/><circle cx="320" cy="30" r="5" fill="#F59E0B"/><g transform="translate(110 320) scale(0.9)"><rect x="-5" y="-4" width="10" height="44" rx="4" fill="#92400E" opacity=".85"/><circle cx="0" cy="-26" r="30" fill="url(#leaf)"/><circle cx="-20" cy="-8" r="20" fill="#22C55E"/><circle cx="21" cy="-10" r="21" fill="#4ADE80"/><circle cx="-8" cy="-34" r="9" fill="#fff" opacity=".22"/></g><g transform="translate(540 322) scale(0.85)"><rect x="-5" y="-4" width="10" height="44" rx="4" fill="#92400E" opacity=".85"/><circle cx="0" cy="-26" r="30" fill="url(#leaf)"/><circle cx="-20" cy="-8" r="20" fill="#22C55E"/><circle cx="21" cy="-10" r="21" fill="#4ADE80"/><circle cx="-8" cy="-34" r="9" fill="#fff" opacity=".22"/></g><circle cx="560" cy="130" r="28" fill="url(#goldH)" stroke="#B45309" stroke-width="2.0"/><circle cx="560" cy="130" r="20.7" fill="none" stroke="#FDE68A" stroke-width="1.6"/><g transform="translate(560 130) scale(1.736)" fill="none" stroke="#B45309" stroke-width="2.6" stroke-linecap="round" stroke-linejoin="round"><path d="M-5.5-6.5h11M-5.5-1.8h11"/><path d="M-4.5-6.5h3.4c3.6 0 5.2 1.6 5.2 4.2s-1.8 4.2-5.4 4.2h-3.2"/><path d="M-3.8 2.1L3.6 9.5"/></g><path d="M544.6 117.4a19.6 19.6 0 0 1 14.0 -8.4" stroke="#fff" stroke-width="2.3" stroke-linecap="round" fill="none" opacity=".7"/><path d="M100 105.6L103.84 116.16 114.4 120 103.84 123.84 100 134.4 96.16 123.84 85.6 120 96.16 116.16Z" fill="#BBF7D0" opacity="1"/><path d="M570 219.2L572.88 227.12 580.8 230 572.88 232.88 570 240.8 567.12 232.88 559.2 230 567.12 227.12Z" fill="#625FFF" opacity="0.45"/><circle cx="70" cy="230" r="7" fill="#22C55E" opacity="0.35"/></svg>