<svg xmlns="http://www.w3.org/2000/svg" viewBox="0 0 640 400" preserveAspectRatio="xMidYMid slice"><defs><linearGradient id="g" x1="0" y1="0" x2="0" y2="1"><stop offset="0" stop-color="#EEF2FF"/><stop offset="1" stop-color="#E0E7FF"/></linearGradient></defs><rect width="640" height="400" fill="url(#g)"/>
<rect y="326" width="640" height="74" fill="#C7D2FE"/>
<path d="M320 92V40" stroke="#312E81" stroke-width="4"/><path d="M320 40h50l-12 14 12 14h-50z" fill="#312E81"/>
<polygon points="156,176 320,96 484,176" fill="#312E81"/><circle cx="320" cy="150" r="14" fill="#fff"/>
<rect x="164" y="176" width="312" height="14" fill="#3730A3"/>
<rect x="190" y="190" width="24" height="98" fill="#fff" stroke="#312E81" stroke-width="3" stroke-linejoin="round"/><rect x="236" y="190" width="24" height="98" fill="#fff" stroke="#312E81" stroke-width="3" stroke-linejoin="round"/><rect x="282" y="190" width="24" height="98" fill="#fff" stroke="#312E81" stroke-width="3" stroke-linejoin="round"/><rect x="328" y="190" width="24" height="98" fill="#fff" stroke="#312E81" stroke-width="3" stroke-linejoin="round"/><rect x="374" y="190" width="24" height="98" fill="#fff" stroke="#312E81" stroke-width="3" stroke-linejoin="round"/><rect x="420" y="190" width="24" height="98" fill="#fff" stroke="#312E81" stroke-width="3" stroke-linejoin="round"/>
<rect x="164" y="288" width="312" height="14" fill="#818CF8" stroke="#312E81" stroke-width="3" stroke-linejoin="round"/><rect x="148" y="302" width="344" height="16" fill="#4F46E5" stroke="#312E81" stroke-width="3" stroke-linejoin="round"/><rect x="132" y="318" width="376" height="14" fill="#312E81"/></svg>
