<svg xmlns="http://www.w3.org/2000/svg" viewBox="0 0 640 400" preserveAspectRatio="xMidYMid slice"><defs><linearGradient id="g" x1="0" y1="0" x2="0" y2="1"><stop offset="0" stop-color="#F4F4F4"/><stop offset="1" stop-color="#DCDCDC"/></linearGradient></defs><rect width="640" height="400" fill="url(#g)"/>
<rect y="318" width="640" height="82" fill="#CFCFCF"/>
<g transform="translate(320 318) scale(.72) translate(-320 -318)"><circle cx="560" cy="70" r="46" fill="#fff"/>
<rect x="190" y="214" width="210" height="104" fill="#fff" stroke="#000" stroke-width="3" stroke-linejoin="round"/><polygon points="168,220 295.0,148 422,220" fill="#000"/><rect x="277.0" y="256" width="36" height="62" fill="#000"/><rect x="210" y="240" width="42" height="42" fill="#D4D4D4" stroke="#000" stroke-width="3" stroke-linejoin="round"/><rect x="338" y="240" width="42" height="42" fill="#D4D4D4" stroke="#000" stroke-width="3" stroke-linejoin="round"/><g transform="rotate(-18 470 190)"><circle cx="430" cy="190" r="38" fill="#fff" stroke="#000" stroke-width="3" stroke-linejoin="round"/><circle cx="430" cy="190" r="14" fill="#262626"/><rect x="466" y="182" width="124" height="16" fill="#000"/><rect x="552" y="198" width="12" height="26" fill="#000"/><rect x="574" y="198" width="12" height="20" fill="#000"/></g><path d="M96 150v-24a28 28 0 0 1 56 0v24" fill="none" stroke="#000" stroke-width="8"/><rect x="82" y="148" width="84" height="64" rx="8" fill="#000"/><circle cx="124" cy="176" r="8" fill="#fff"/><rect x="121" y="178" width="6" height="18" fill="#fff"/></g></svg>