<svg xmlns="http://www.w3.org/2000/svg" viewBox="0 0 640 400" preserveAspectRatio="xMidYMid slice"><defs><linearGradient id="g" x1="0" y1="0" x2="0" y2="1"><stop offset="0" stop-color="#F4F4F4"/><stop offset="1" stop-color="#DCDCDC"/></linearGradient></defs><rect width="640" height="400" fill="url(#g)"/>
<rect y="322" width="640" height="78" fill="#CFCFCF"/>
<path d="M40 232h60M20 252h80M56 272h44" stroke="#9A9A9A" stroke-width="5" stroke-linecap="round"/>
<path d="M120 292v-48c0-14 8-20 22-22l66-10 40-46c8-10 18-12 30-12h124c14 0 24 6 32 16l30 42 54 10c18 4 26 12 26 26v44z" fill="#000"/>
<path d="M262 176h72v36H238z" fill="#D4D4D4"/><path d="M346 176h56c8 0 14 4 18 10l20 26H346z" fill="#D4D4D4"/>
<rect x="470" y="238" width="30" height="12" rx="6" fill="#fff"/><rect x="128" y="240" width="22" height="12" rx="6" fill="#737373"/>
<circle cx="214" cy="296" r="40" fill="#262626" stroke="#000" stroke-width="3" stroke-linejoin="round"/><circle cx="214" cy="296" r="18" fill="#fff"/><circle cx="214" cy="296" r="6" fill="#000"/>
<circle cx="450" cy="296" r="40" fill="#262626" stroke="#000" stroke-width="3" stroke-linejoin="round"/><circle cx="450" cy="296" r="18" fill="#fff"/><circle cx="450" cy="296" r="6" fill="#000"/></svg>
