<svg xmlns="http://www.w3.org/2000/svg" viewBox="0 0 640 400" preserveAspectRatio="xMidYMid slice"><defs>
<radialGradient id="bg" cx="50%" cy="46%" r="72%"><stop offset="0" stop-color="#fff"/><stop offset="1" stop-color="#FDF6EF"/></radialGradient>
<linearGradient id="roof" x1="0" y1="0" x2="0" y2="1"><stop offset="0" stop-color="#625FFF"/><stop offset="1" stop-color="#4F46E5"/></linearGradient>
<linearGradient id="wall" x1="0" y1="0" x2="1" y2="0"><stop offset="0" stop-color="#fff"/><stop offset="1" stop-color="#E9ECFF"/></linearGradient>
<linearGradient id="gold" x1="0" y1="0" x2="0" y2="1"><stop offset="0" stop-color="#FDE68A"/><stop offset="1" stop-color="#F59E0B"/></linearGradient>
<linearGradient id="goldH" x1="0" y1="0" x2="1" y2="1"><stop offset="0" stop-color="#FDE68A"/><stop offset=".55" stop-color="#FBBF24"/><stop offset="1" stop-color="#F59E0B"/></linearGradient>
<linearGradient id="ind" x1="0" y1="0" x2="1" y2="1"><stop offset="0" stop-color="#7C79FF"/><stop offset="1" stop-color="#4F46E5"/></linearGradient>
<linearGradient id="leaf" x1="0" y1="0" x2="0" y2="1"><stop offset="0" stop-color="#4ADE80"/><stop offset="1" stop-color="#22C55E"/></linearGradient>
<filter id="sh" x="-30%" y="-30%" width="160%" height="170%"><feDropShadow dx="0" dy="10" stdDeviation="9" flood-color="#312E81" flood-opacity=".16"/></filter>
<filter id="sh2" x="-30%" y="-30%" width="160%" height="170%"><feDropShadow dx="0" dy="4" stdDeviation="4" flood-color="#312E81" flood-opacity=".18"/></filter>
</defs><rect width="640" height="400" fill="url(#bg)"/>
<circle cx="320" cy="190" r="150" fill="#fff" opacity=".55"/><ellipse cx="320" cy="346" rx="240" ry="16" fill="#312E81" opacity="0.12"/><g filter="url(#sh)"><rect x="150" y="200" width="260" height="130" fill="#fff" stroke="#312E81" stroke-width="4"/></g><path d="M154 222h252" stroke="#E0E7FF" stroke-width="3"/><path d="M154 244h252" stroke="#E0E7FF" stroke-width="3"/><path d="M154 266h252" stroke="#E0E7FF" stroke-width="3"/><path d="M154 288h252" stroke="#E0E7FF" stroke-width="3"/><path d="M154 310h252" stroke="#E0E7FF" stroke-width="3"/><rect x="270" y="250" width="60" height="80" fill="#E0E7FF" stroke="#312E81" stroke-width="3.5"/><path d="M140 200L280 120 420 200" fill="none" stroke="#312E81" stroke-width="7" stroke-linecap="round" stroke-linejoin="round"/><path d="M140 200L280 120 420 200" fill="none" stroke="#625FFF" stroke-width="3.5" stroke-linecap="round" stroke-linejoin="round" stroke-dasharray="12 8"/><path d="M280 120v80M210 160v40M350 160v40" stroke="#312E81" stroke-width="3.5"/><path d="M140 330L180 240M420 330L380 240" stroke="#A5B4FC" stroke-width="5"/><path d="M136 260h300M136 300h300" stroke="#A5B4FC" stroke-width="4" opacity=".7"/><g filter="url(#sh2)"><rect x="480" y="84" width="16" height="250" fill="#FBBF24" stroke="#B45309" stroke-width="3"/><path d="M480 96l16 25M496 96l-16 25" stroke="#B45309" stroke-width="2.4"/><path d="M480 121l16 25M496 121l-16 25" stroke="#B45309" stroke-width="2.4"/><path d="M480 146l16 25M496 146l-16 25" stroke="#B45309" stroke-width="2.4"/><path d="M480 171l16 25M496 171l-16 25" stroke="#B45309" stroke-width="2.4"/><path d="M480 196l16 25M496 196l-16 25" stroke="#B45309" stroke-width="2.4"/><path d="M480 221l16 25M496 221l-16 25" stroke="#B45309" stroke-width="2.4"/><path d="M480 246l16 25M496 246l-16 25" stroke="#B45309" stroke-width="2.4"/><path d="M480 271l16 25M496 271l-16 25" stroke="#B45309" stroke-width="2.4"/><path d="M480 296l16 25M496 296l-16 25" stroke="#B45309" stroke-width="2.4"/><path d="M480 321l16 25M496 321l-16 25" stroke="#B45309" stroke-width="2.4"/><rect x="330" y="80" width="230" height="14" fill="#FBBF24" stroke="#B45309" stroke-width="3"/><rect x="548" y="94" width="26" height="30" fill="#312E81"/><polygon points="488,48 470,84 506,84" fill="#FBBF24" stroke="#B45309" stroke-width="3"/></g><path d="M488 48L340 84M488 48L560 84" stroke="#B45309" stroke-width="2.4"/><path d="M360 94v74" stroke="#312E81" stroke-width="3"/><path d="M360 168q-10 8 0 16" fill="none" stroke="#312E81" stroke-width="4" stroke-linecap="round"/><g transform="translate(300 160)"><polygon points="-60,24 0,-14 60,24" fill="url(#roof)" stroke="#312E81" stroke-width="3.5" stroke-linejoin="round" transform="translate(60 0) scale(.9)"/></g><rect x="80" y="332" width="36" height="18" rx="3" fill="#F87171" stroke="#B91C1C" stroke-width="2.4"/><rect x="118" y="332" width="36" height="18" rx="3" fill="#F87171" stroke="#B91C1C" stroke-width="2.4"/><rect x="156" y="332" width="36" height="18" rx="3" fill="#F87171" stroke="#B91C1C" stroke-width="2.4"/><rect x="99" y="312" width="36" height="18" rx="3" fill="#F87171" stroke="#B91C1C" stroke-width="2.4"/><rect x="137" y="312" width="36" height="18" rx="3" fill="#F87171" stroke="#B91C1C" stroke-width="2.4"/><rect x="80" y="292" width="36" height="18" rx="3" fill="#F87171" stroke="#B91C1C" stroke-width="2.4"/><rect x="118" y="292" width="36" height="18" rx="3" fill="#F87171" stroke="#B91C1C" stroke-width="2.4"/><rect x="156" y="292" width="36" height="18" rx="3" fill="#F87171" stroke="#B91C1C" stroke-width="2.4"/><g filter="url(#sh2)"><path d="M500 326a40 40 0 0 1 80 0z" fill="#FBBF24" stroke="#B45309" stroke-width="3.5" stroke-linejoin="round"/><rect x="490" y="324" width="100" height="12" rx="6" fill="#F59E0B" stroke="#B45309" stroke-width="3.5"/><rect x="534" y="292" width="12" height="36" fill="#F59E0B" stroke="#B45309" stroke-width="2.5"/></g><path d="M110 96.8L113.52 106.48 123.2 110 113.52 113.52 110 123.2 106.48 113.52 96.8 110 106.48 106.48Z" fill="#FDE68A" opacity="1"/><circle cx="580" cy="230" r="7" fill="#F59E0B" opacity="0.35"/><circle cx="70" cy="230" r="6" fill="#F59E0B" opacity="0.3"/></svg>