<svg xmlns="http://www.w3.org/2000/svg" viewBox="0 0 640 400" preserveAspectRatio="xMidYMid slice"><defs>
<radialGradient id="bg" cx="50%" cy="46%" r="72%"><stop offset="0" stop-color="#fff"/><stop offset="1" stop-color="#E4EFFD"/></radialGradient>
<linearGradient id="roof" x1="0" y1="0" x2="0" y2="1"><stop offset="0" stop-color="#625FFF"/><stop offset="1" stop-color="#4F46E5"/></linearGradient>
<linearGradient id="wall" x1="0" y1="0" x2="1" y2="0"><stop offset="0" stop-color="#fff"/><stop offset="1" stop-color="#E9ECFF"/></linearGradient>
<linearGradient id="gold" x1="0" y1="0" x2="0" y2="1"><stop offset="0" stop-color="#FDE68A"/><stop offset="1" stop-color="#F59E0B"/></linearGradient>
<linearGradient id="goldH" x1="0" y1="0" x2="1" y2="1"><stop offset="0" stop-color="#FDE68A"/><stop offset=".55" stop-color="#FBBF24"/><stop offset="1" stop-color="#F59E0B"/></linearGradient>
<linearGradient id="ind" x1="0" y1="0" x2="1" y2="1"><stop offset="0" stop-color="#7C79FF"/><stop offset="1" stop-color="#4F46E5"/></linearGradient>
<linearGradient id="leaf" x1="0" y1="0" x2="0" y2="1"><stop offset="0" stop-color="#4ADE80"/><stop offset="1" stop-color="#22C55E"/></linearGradient>
<filter id="sh" x="-30%" y="-30%" width="160%" height="170%"><feDropShadow dx="0" dy="10" stdDeviation="9" flood-color="#312E81" flood-opacity=".16"/></filter>
<filter id="sh2" x="-30%" y="-30%" width="160%" height="170%"><feDropShadow dx="0" dy="4" stdDeviation="4" flood-color="#312E81" flood-opacity=".18"/></filter>
</defs><rect width="640" height="400" fill="url(#bg)"/>
<circle cx="320" cy="190" r="150" fill="#fff" opacity=".55"/><ellipse cx="320" cy="346" rx="230" ry="16" fill="#312E81" opacity="0.12"/><g transform="translate(150 300) scale(1.05)"><rect x="-5" y="-4" width="10" height="44" rx="4" fill="#92400E" opacity=".85"/><circle cx="0" cy="-26" r="30" fill="url(#leaf)"/><circle cx="-20" cy="-8" r="20" fill="#22C55E"/><circle cx="21" cy="-10" r="21" fill="#4ADE80"/><circle cx="-8" cy="-34" r="9" fill="#fff" opacity=".22"/></g><g transform="translate(520 330) scale(1.1)"><circle cx="-16" cy="0" r="14" fill="#22C55E"/><circle cx="0" cy="-6" r="17" fill="#4ADE80"/><circle cx="17" cy="0" r="13" fill="#22C55E"/></g><g transform="translate(0 0) scale(1)"><rect x="200" y="190" width="240" height="140" rx="6" fill="url(#wall)" stroke="#312E81" stroke-width="4" stroke-linejoin="round"/><rect x="388" y="112" width="30" height="62" rx="3" fill="#312E81"/><rect x="383" y="106" width="40" height="12" rx="3" fill="#4F46E5"/><polygon points="168,204 320,92 472,204" fill="url(#roof)" stroke="#312E81" stroke-width="4" stroke-linejoin="round"/><polygon points="168,204 320,92 320,108 192,204" fill="#fff" opacity=".18"/><circle cx="320" cy="158" r="17" fill="#E0E7FF" stroke="#312E81" stroke-width="3"/><path d="M320 141v34M303 158h34" stroke="#312E81" stroke-width="2.2"/><rect x="222" y="226" width="56" height="56" rx="5" fill="#E0E7FF" stroke="#312E81" stroke-width="3"/><path d="M250.0 226v56M222 254.0h56" stroke="#312E81" stroke-width="2.4"/><path d="M228 274l16.8 -22.400000000000002" stroke="#fff" stroke-width="3" stroke-linecap="round" opacity=".8"/><rect x="362" y="226" width="56" height="56" rx="5" fill="#E0E7FF" stroke="#312E81" stroke-width="3"/><path d="M390.0 226v56M362 254.0h56" stroke="#312E81" stroke-width="2.4"/><path d="M368 274l16.8 -22.400000000000002" stroke="#fff" stroke-width="3" stroke-linecap="round" opacity=".8"/><rect x="290" y="250" width="60" height="80" rx="30" ry="6" fill="url(#ind)" stroke="#312E81" stroke-width="3.5"/><circle cx="338" cy="294" r="4" fill="#FBBF24"/><rect x="276" y="326" width="88" height="10" rx="3" fill="#E0E7FF" stroke="#312E81" stroke-width="2.5"/><rect x="266" y="334" width="108" height="9" rx="3" fill="#A5B4FC" stroke="#312E81" stroke-width="2.5"/></g><g transform="translate(190 336) scale(0.8)"><circle cx="-16" cy="0" r="14" fill="#22C55E"/><circle cx="0" cy="-6" r="17" fill="#4ADE80"/><circle cx="17" cy="0" r="13" fill="#22C55E"/></g><circle cx="500" cy="120" r="34" fill="url(#goldH)" stroke="#B45309" stroke-width="2.4"/><circle cx="500" cy="120" r="25.2" fill="none" stroke="#FDE68A" stroke-width="1.9"/><g transform="translate(500 120) scale(2.1079999999999997)" fill="none" stroke="#B45309" stroke-width="2.6" stroke-linecap="round" stroke-linejoin="round"><path d="M-5.5-6.5h11M-5.5-1.8h11"/><path d="M-4.5-6.5h3.4c3.6 0 5.2 1.6 5.2 4.2s-1.8 4.2-5.4 4.2h-3.2"/><path d="M-3.8 2.1L3.6 9.5"/></g><path d="M481.3 104.7a23.8 23.8 0 0 1 17.0 -10.2" stroke="#fff" stroke-width="2.8" stroke-linecap="round" fill="none" opacity=".7"/><path d="M110 105.6L113.84 116.16 124.4 120 113.84 123.84 110 134.4 106.16 123.84 95.6 120 106.16 116.16Z" fill="#FDE68A" opacity="1"/><path d="M560 209.2L562.88 217.12 570.8 220 562.88 222.88 560 230.8 557.12 222.88 549.2 220 557.12 217.12Z" fill="#625FFF" opacity="0.5"/><circle cx="90" cy="230" r="6" fill="#625FFF" opacity="0.3"/><circle cx="585" cy="300" r="8" fill="#625FFF" opacity="0.3"/></svg>