<svg xmlns="http://www.w3.org/2000/svg" viewBox="0 0 640 400" preserveAspectRatio="xMidYMid slice"><defs>
<radialGradient id="bg" cx="50%" cy="46%" r="72%"><stop offset="0" stop-color="#fff"/><stop offset="1" stop-color="#FCEDFF"/></radialGradient>
<linearGradient id="roof" x1="0" y1="0" x2="0" y2="1"><stop offset="0" stop-color="#625FFF"/><stop offset="1" stop-color="#4F46E5"/></linearGradient>
<linearGradient id="wall" x1="0" y1="0" x2="1" y2="0"><stop offset="0" stop-color="#fff"/><stop offset="1" stop-color="#E9ECFF"/></linearGradient>
<linearGradient id="gold" x1="0" y1="0" x2="0" y2="1"><stop offset="0" stop-color="#FDE68A"/><stop offset="1" stop-color="#F59E0B"/></linearGradient>
<linearGradient id="goldH" x1="0" y1="0" x2="1" y2="1"><stop offset="0" stop-color="#FDE68A"/><stop offset=".55" stop-color="#FBBF24"/><stop offset="1" stop-color="#F59E0B"/></linearGradient>
<linearGradient id="ind" x1="0" y1="0" x2="1" y2="1"><stop offset="0" stop-color="#7C79FF"/><stop offset="1" stop-color="#4F46E5"/></linearGradient>
<linearGradient id="leaf" x1="0" y1="0" x2="0" y2="1"><stop offset="0" stop-color="#4ADE80"/><stop offset="1" stop-color="#22C55E"/></linearGradient>
<filter id="sh" x="-30%" y="-30%" width="160%" height="170%"><feDropShadow dx="0" dy="10" stdDeviation="9" flood-color="#312E81" flood-opacity=".16"/></filter>
<filter id="sh2" x="-30%" y="-30%" width="160%" height="170%"><feDropShadow dx="0" dy="4" stdDeviation="4" flood-color="#312E81" flood-opacity=".18"/></filter>
</defs><rect width="640" height="400" fill="url(#bg)"/>
<circle cx="320" cy="190" r="150" fill="#fff" opacity=".55"/><ellipse cx="280" cy="346" rx="170" ry="16" fill="#312E81" opacity="0.12"/><g filter="url(#sh)"><path d="M178 340c0-62 44-98 102-98s102 36 102 98z" fill="url(#ind)" stroke="#312E81" stroke-width="4" stroke-linejoin="round"/></g><path d="M255 244l25 34 25-34" fill="#fff" stroke="#312E81" stroke-width="3.5" stroke-linejoin="round"/><rect x="262" y="214" width="36" height="34" rx="12" fill="#F6C9A5" stroke="#312E81" stroke-width="3.5"/><ellipse cx="280" cy="170" rx="50" ry="56" fill="#FCD5B5" stroke="#312E81" stroke-width="4"/><path d="M229 168c-6-48 28-74 62-70 34 4 46 34 40 58-12-22-34-30-58-28-24 2-36 16-44 40z" fill="#312E81" stroke="#312E81" stroke-width="3" stroke-linejoin="round"/><circle cx="262" cy="176" r="4.5" fill="#312E81"/><circle cx="300" cy="176" r="4.5" fill="#312E81"/><path d="M265 198q15 14 31 0" fill="none" stroke="#312E81" stroke-width="3.5" stroke-linecap="round"/><circle cx="250" cy="192" r="6" fill="#F9A8D4" opacity=".6"/><circle cx="312" cy="192" r="6" fill="#F9A8D4" opacity=".6"/><g transform="rotate(-10 435.0 261.0)" filter="url(#sh)"><rect x="360" y="214" width="150" height="94" rx="14" fill="url(#ind)" stroke="#312E81" stroke-width="3.5"/><rect x="376" y="236" width="30" height="22" rx="5" fill="#FBBF24" stroke="#B45309" stroke-width="2"/><rect x="376" y="272" width="90" height="8" rx="4" fill="#fff" opacity=".7"/><rect x="376" y="286" width="60" height="8" rx="4" fill="#fff" opacity=".45"/><circle cx="480" cy="284" r="12" fill="#fff" opacity=".35"/><circle cx="492" cy="284" r="12" fill="#fff" opacity=".35"/></g><circle cx="176" cy="190" r="30" fill="url(#goldH)" stroke="#B45309" stroke-width="2.1"/><circle cx="176" cy="190" r="22.2" fill="none" stroke="#FDE68A" stroke-width="1.7"/><g transform="translate(176 190) scale(1.86)" fill="none" stroke="#B45309" stroke-width="2.6" stroke-linecap="round" stroke-linejoin="round"><path d="M-5.5-6.5h11M-5.5-1.8h11"/><path d="M-4.5-6.5h3.4c3.6 0 5.2 1.6 5.2 4.2s-1.8 4.2-5.4 4.2h-3.2"/><path d="M-3.8 2.1L3.6 9.5"/></g><path d="M159.5 176.5a21.0 21.0 0 0 1 15.0 -9.0" stroke="#fff" stroke-width="2.5" stroke-linecap="round" fill="none" opacity=".7"/><circle cx="168" cy="262" r="20" fill="url(#goldH)" stroke="#B45309" stroke-width="2.0"/><circle cx="168" cy="262" r="14.8" fill="none" stroke="#FDE68A" stroke-width="1.6"/><g transform="translate(168 262) scale(1.24)" fill="none" stroke="#B45309" stroke-width="2.6" stroke-linecap="round" stroke-linejoin="round"><path d="M-5.5-6.5h11M-5.5-1.8h11"/><path d="M-4.5-6.5h3.4c3.6 0 5.2 1.6 5.2 4.2s-1.8 4.2-5.4 4.2h-3.2"/><path d="M-3.8 2.1L3.6 9.5"/></g><path d="M157.0 253.0a14.0 14.0 0 0 1 10.0 -6.0" stroke="#fff" stroke-width="2.0" stroke-linecap="round" fill="none" opacity=".7"/><path d="M420 114.4L424.16 125.84 435.6 130 424.16 134.16 420 145.6 415.84 134.16 404.4 130 415.84 125.84Z" fill="#625FFF" opacity="0.6"/><path d="M130 108L133.2 116.8 142 120 133.2 123.2 130 132 126.8 123.2 118 120 126.8 116.8Z" fill="#fff" opacity="1"/><circle cx="520" cy="150" r="8" fill="#EC4899" opacity="0.3"/><circle cx="100" cy="300" r="7" fill="#625FFF" opacity="0.3"/></svg>