<svg xmlns="http://www.w3.org/2000/svg" viewBox="0 0 640 400" preserveAspectRatio="xMidYMid slice"><defs><linearGradient id="g" x1="0" y1="0" x2="0" y2="1"><stop offset="0" stop-color="#EEF2FF"/><stop offset="1" stop-color="#E0E7FF"/></linearGradient></defs><rect width="640" height="400" fill="url(#g)"/>
<rect y="318" width="640" height="82" fill="#C7D2FE"/>
<g transform="translate(320 318) scale(.72) translate(-320 -318)"><rect x="80" y="170" width="150" height="148" fill="#fff" stroke="#312E81" stroke-width="3" stroke-linejoin="round"/><polygon points="66,172 155,112 244,172" fill="#312E81"/><rect x="96" y="196" width="16" height="92" fill="#E0E7FF" stroke="#312E81" stroke-width="2"/><rect x="130" y="196" width="16" height="92" fill="#E0E7FF" stroke="#312E81" stroke-width="2"/><rect x="164" y="196" width="16" height="92" fill="#E0E7FF" stroke="#312E81" stroke-width="2"/><rect x="198" y="196" width="16" height="92" fill="#E0E7FF" stroke="#312E81" stroke-width="2"/><rect x="412" y="170" width="150" height="148" fill="#fff" stroke="#312E81" stroke-width="3" stroke-linejoin="round"/><polygon points="398,172 487,112 576,172" fill="#312E81"/><rect x="428" y="196" width="16" height="92" fill="#E0E7FF" stroke="#312E81" stroke-width="2"/><rect x="462" y="196" width="16" height="92" fill="#E0E7FF" stroke="#312E81" stroke-width="2"/><rect x="496" y="196" width="16" height="92" fill="#E0E7FF" stroke="#312E81" stroke-width="2"/><rect x="530" y="196" width="16" height="92" fill="#E0E7FF" stroke="#312E81" stroke-width="2"/><path d="M286 210h86" stroke="#312E81" stroke-width="6" stroke-linecap="round"/><polygon points="372,194 400,210 372,226" fill="#312E81"/><path d="M354 262h-86" stroke="#312E81" stroke-width="6" stroke-linecap="round"/><polygon points="268,246 240,262 268,278" fill="#312E81"/><circle cx="540" cy="110" r="42" fill="#312E81"/><path d="M540 88v44M518 110h44" stroke="#fff" stroke-width="8" stroke-linecap="round"/></g></svg>