<svg xmlns="http://www.w3.org/2000/svg" viewBox="0 0 640 400" preserveAspectRatio="xMidYMid slice"><defs>
<radialGradient id="bg" cx="50%" cy="46%" r="72%"><stop offset="0" stop-color="#fff"/><stop offset="1" stop-color="#EFFDF5"/></radialGradient>
<linearGradient id="roof" x1="0" y1="0" x2="0" y2="1"><stop offset="0" stop-color="#625FFF"/><stop offset="1" stop-color="#4F46E5"/></linearGradient>
<linearGradient id="wall" x1="0" y1="0" x2="1" y2="0"><stop offset="0" stop-color="#fff"/><stop offset="1" stop-color="#E9ECFF"/></linearGradient>
<linearGradient id="gold" x1="0" y1="0" x2="0" y2="1"><stop offset="0" stop-color="#FDE68A"/><stop offset="1" stop-color="#F59E0B"/></linearGradient>
<linearGradient id="goldH" x1="0" y1="0" x2="1" y2="1"><stop offset="0" stop-color="#FDE68A"/><stop offset=".55" stop-color="#FBBF24"/><stop offset="1" stop-color="#F59E0B"/></linearGradient>
<linearGradient id="ind" x1="0" y1="0" x2="1" y2="1"><stop offset="0" stop-color="#7C79FF"/><stop offset="1" stop-color="#4F46E5"/></linearGradient>
<linearGradient id="leaf" x1="0" y1="0" x2="0" y2="1"><stop offset="0" stop-color="#4ADE80"/><stop offset="1" stop-color="#22C55E"/></linearGradient>
<filter id="sh" x="-30%" y="-30%" width="160%" height="170%"><feDropShadow dx="0" dy="10" stdDeviation="9" flood-color="#312E81" flood-opacity=".16"/></filter>
<filter id="sh2" x="-30%" y="-30%" width="160%" height="170%"><feDropShadow dx="0" dy="4" stdDeviation="4" flood-color="#312E81" flood-opacity=".18"/></filter>
</defs><rect width="640" height="400" fill="url(#bg)"/>
<circle cx="320" cy="190" r="150" fill="#fff" opacity=".55"/><ellipse cx="320" cy="346" rx="240" ry="16" fill="#312E81" opacity="0.12"/><g transform="translate(50 176) scale(1.25)" filter="url(#sh)"><rect x="0" y="86" width="150" height="14" rx="4" fill="#E0E7FF" stroke="#312E81" stroke-width="3.5"/><rect x="8" y="76" width="134" height="14" rx="4" fill="#fff" stroke="#312E81" stroke-width="3.5"/><polygon points="-8,40 75,-6 158,40" fill="#C7D2FE" stroke="#312E81" stroke-width="4" stroke-linejoin="round"/><rect x="2" y="40" width="146" height="12" rx="3" fill="#fff" stroke="#312E81" stroke-width="3.5"/></g><rect x="67.5" y="241.0" width="25.0" height="32.5" fill="url(#wall)" stroke="#312E81" stroke-width="3"/><rect x="110.0" y="241.0" width="25.0" height="32.5" fill="url(#wall)" stroke="#312E81" stroke-width="3"/><rect x="152.5" y="241.0" width="25.0" height="32.5" fill="url(#wall)" stroke="#312E81" stroke-width="3"/><rect x="195.0" y="241.0" width="25.0" height="32.5" fill="url(#wall)" stroke="#312E81" stroke-width="3"/><g transform="translate(402 176) scale(1.25)" filter="url(#sh)"><rect x="0" y="86" width="150" height="14" rx="4" fill="#4F46E5" stroke="#312E81" stroke-width="3.5"/><rect x="8" y="76" width="134" height="14" rx="4" fill="#fff" stroke="#312E81" stroke-width="3.5"/><polygon points="-8,40 75,-6 158,40" fill="#625FFF" stroke="#312E81" stroke-width="4" stroke-linejoin="round"/><rect x="2" y="40" width="146" height="12" rx="3" fill="#fff" stroke="#312E81" stroke-width="3.5"/></g><rect x="419.5" y="241.0" width="25.0" height="32.5" fill="url(#wall)" stroke="#312E81" stroke-width="3"/><rect x="462.0" y="241.0" width="25.0" height="32.5" fill="url(#wall)" stroke="#312E81" stroke-width="3"/><rect x="504.5" y="241.0" width="25.0" height="32.5" fill="url(#wall)" stroke="#312E81" stroke-width="3"/><rect x="547.0" y="241.0" width="25.0" height="32.5" fill="url(#wall)" stroke="#312E81" stroke-width="3"/><g filter="url(#sh)"><path d="M262 214h92" stroke="#22C55E" stroke-width="12" stroke-linecap="round"/><path d="M340 192l30 22-30 22z" fill="#22C55E" stroke="#15803D" stroke-width="3" stroke-linejoin="round"/><path d="M378 276h-92" stroke="#625FFF" stroke-width="12" stroke-linecap="round"/><path d="M298 254l-30 22 30 22z" fill="#625FFF" stroke="#312E81" stroke-width="3" stroke-linejoin="round"/></g><circle cx="320" cy="120" r="42" fill="url(#goldH)" stroke="#B45309" stroke-width="5"/><path d="M320 98v44M298 120h44" stroke="#B45309" stroke-width="9" stroke-linecap="round"/><g filter="url(#sh2)"><circle cx="190" cy="150" r="26" fill="#BBF7D0" stroke="#15803D" stroke-width="3.5"/><path d="M178 162l24-24M180 142a3 3 0 1 0 .1 0M202 160a3 3 0 1 0 .1 0" fill="none" stroke="#15803D" stroke-width="3.5" stroke-linecap="round"/></g><path d="M110 96.8L113.52 106.48 123.2 110 113.52 113.52 110 123.2 106.48 113.52 96.8 110 106.48 106.48Z" fill="#fff" opacity="1"/><path d="M560 115.6L563.84 126.16 574.4 130 563.84 133.84 560 144.4 556.16 133.84 545.6 130 556.16 126.16Z" fill="#625FFF" opacity="0.5"/><circle cx="80" cy="290" r="7" fill="#22C55E" opacity="0.35"/><circle cx="590" cy="250" r="6" fill="#625FFF" opacity="0.3"/></svg>