<svg xmlns="http://www.w3.org/2000/svg" viewBox="0 0 640 400" preserveAspectRatio="xMidYMid slice"><defs><radialGradient id="b" cx="50%" cy="50%" r="75%"><stop offset="0" stop-color="#FFFFFF"/><stop offset="1" stop-color="#FDF6EF"/></radialGradient><filter id="s" x="-20%" y="-20%" width="140%" height="150%"><feDropShadow dx="0" dy="6" stdDeviation="9" flood-color="#312E81" flood-opacity=".12"/></filter></defs><rect width="640" height="400" fill="url(#b)"/><rect x="130" y="70" width="170" height="110" rx="16" fill="#fff" filter="url(#s)"/><circle cx="170" cy="115" r="22" fill="#FFE4C2"/><rect x="204" y="104" width="90" height="10" rx="5.0" fill="#E5E7EB"/><rect x="204" y="124" width="60" height="8" rx="4.0" fill="#E5E7EB"/><rect x="150" y="152" width="120" height="8" rx="4.0" fill="#F3F4F6"/><rect x="150" y="152" width="80" height="8" rx="4.0" fill="#625FFF"/><rect x="320" y="70" width="170" height="110" rx="16" fill="#fff" filter="url(#s)"/><circle cx="360" cy="115" r="22" fill="#E0E7FF"/><rect x="394" y="104" width="90" height="10" rx="5.0" fill="#E5E7EB"/><rect x="394" y="124" width="60" height="8" rx="4.0" fill="#E5E7EB"/><rect x="340" y="152" width="120" height="8" rx="4.0" fill="#F3F4F6"/><rect x="340" y="152" width="80" height="8" rx="4.0" fill="#625FFF"/><rect x="130" y="200" width="170" height="110" rx="16" fill="#fff" filter="url(#s)"/><circle cx="170" cy="245" r="22" fill="#DCFCE7"/><rect x="204" y="234" width="90" height="10" rx="5.0" fill="#E5E7EB"/><rect x="204" y="254" width="60" height="8" rx="4.0" fill="#E5E7EB"/><rect x="150" y="282" width="120" height="8" rx="4.0" fill="#F3F4F6"/><rect x="150" y="282" width="80" height="8" rx="4.0" fill="#625FFF"/><rect x="320" y="200" width="170" height="110" rx="16" fill="#fff" filter="url(#s)"/><circle cx="360" cy="245" r="22" fill="#FCE7F3"/><rect x="394" y="234" width="90" height="10" rx="5.0" fill="#E5E7EB"/><rect x="394" y="254" width="60" height="8" rx="4.0" fill="#E5E7EB"/><rect x="340" y="282" width="120" height="8" rx="4.0" fill="#F3F4F6"/><rect x="340" y="282" width="80" height="8" rx="4.0" fill="#625FFF"/></svg>